<mxfile host="Electron" modified="2025-05-20T17:46:51.558Z" agent="Mozilla/5.0 (Windows NT 10.0; Win64; x64) AppleWebKit/537.36 (KHTML, like Gecko) draw.io/24.6.4 Chrome/124.0.6367.207 Electron/30.0.6 Safari/537.36" etag="1F1oOiVUVCan29FwJIGk" version="24.6.4" type="device">
  <diagram id="ec7dsXRxZqBlURVk468d" name="Страница — 2">
    <mxGraphModel dx="1360" dy="777" grid="1" gridSize="10" guides="1" tooltips="1" connect="1" arrows="1" fold="1" page="1" pageScale="1" pageWidth="1169" pageHeight="827" math="0" shadow="0">
      <root>
        <mxCell id="0" />
        <mxCell id="1" parent="0" />
        <mxCell id="MoLUOoWKBqtgpBnRlrvZ-8" value="&lt;span style=&quot;font-size: 30px;&quot;&gt;&lt;b style=&quot;&quot;&gt;&lt;font color=&quot;#ff0000&quot;&gt;G&lt;/font&gt; - A - &lt;font color=&quot;#ff0000&quot;&gt;A#&lt;/font&gt; - C - &lt;font color=&quot;#ff0000&quot;&gt;D&lt;/font&gt; - D# - F - G&lt;/b&gt;&lt;/span&gt;" style="text;strokeColor=none;align=center;fillColor=none;html=1;verticalAlign=middle;whiteSpace=wrap;rounded=0;fontSize=16;" parent="1" vertex="1">
          <mxGeometry x="660" y="30" width="490" height="30" as="geometry" />
        </mxCell>
        <mxCell id="MoLUOoWKBqtgpBnRlrvZ-9" value="&lt;b&gt;&lt;font style=&quot;font-size: 25px;&quot;&gt;G0 – B0 – D1 – G1 – B1 – G2&lt;/font&gt;&lt;/b&gt;" style="text;strokeColor=none;align=center;fillColor=none;html=1;verticalAlign=middle;whiteSpace=wrap;rounded=0;fontSize=16;" parent="1" vertex="1">
          <mxGeometry x="60" y="383.5" width="415" height="30" as="geometry" />
        </mxCell>
        <mxCell id="MoLUOoWKBqtgpBnRlrvZ-12" value="&lt;div style=&quot;text-align: start; font-size: 30px;&quot;&gt;&lt;span style=&quot;font-family: &amp;quot;Roboto Condensed&amp;quot;, sans-serif; font-size: 32px; text-align: center; background-color: rgb(255, 255, 255);&quot;&gt;&lt;font style=&quot;&quot; color=&quot;#ff0000&quot;&gt;G&lt;/font&gt;&lt;/span&gt;&lt;span style=&quot;color: rgb(45, 55, 72); font-family: &amp;quot;Roboto Condensed&amp;quot;, sans-serif; font-size: 32px; text-align: center; background-color: rgb(255, 255, 255);&quot;&gt; - A - &lt;/span&gt;&lt;span style=&quot;font-family: &amp;quot;Roboto Condensed&amp;quot;, sans-serif; font-size: 32px; text-align: center; background-color: rgb(255, 255, 255);&quot;&gt;&lt;font color=&quot;#ff0000&quot;&gt;B&lt;/font&gt;&lt;/span&gt;&lt;span style=&quot;color: rgb(45, 55, 72); font-family: &amp;quot;Roboto Condensed&amp;quot;, sans-serif; font-size: 32px; text-align: center; background-color: rgb(255, 255, 255);&quot;&gt; - C - &lt;/span&gt;&lt;span style=&quot;font-family: &amp;quot;Roboto Condensed&amp;quot;, sans-serif; font-size: 32px; text-align: center; background-color: rgb(255, 255, 255);&quot;&gt;&lt;font color=&quot;#ff0000&quot;&gt;D&lt;/font&gt;&lt;/span&gt;&lt;span style=&quot;color: rgb(45, 55, 72); font-family: &amp;quot;Roboto Condensed&amp;quot;, sans-serif; font-size: 32px; text-align: center; background-color: rgb(255, 255, 255);&quot;&gt; - E - F# - G&lt;/span&gt;&lt;br&gt;&lt;/div&gt;" style="text;strokeColor=none;align=center;fillColor=none;html=1;verticalAlign=middle;whiteSpace=wrap;rounded=0;fontSize=16;fontStyle=1" parent="1" vertex="1">
          <mxGeometry x="40" y="30" width="510" height="30" as="geometry" />
        </mxCell>
        <mxCell id="MoLUOoWKBqtgpBnRlrvZ-13" value="&lt;b&gt;&lt;font style=&quot;font-size: 25px;&quot;&gt;G0 - D1 - G1 - B1 - D1 - G2&lt;/font&gt;&lt;/b&gt;" style="text;strokeColor=none;align=center;fillColor=none;html=1;verticalAlign=middle;whiteSpace=wrap;rounded=0;fontSize=16;" parent="1" vertex="1">
          <mxGeometry x="50" y="760" width="415" height="30" as="geometry" />
        </mxCell>
        <mxCell id="MoLUOoWKBqtgpBnRlrvZ-14" value="&lt;b&gt;&lt;font style=&quot;font-size: 25px;&quot;&gt;G0 - D1 - G1 - A1# - D2 - G2&lt;/font&gt;&lt;/b&gt;" style="text;strokeColor=none;align=center;fillColor=none;html=1;verticalAlign=middle;whiteSpace=wrap;rounded=0;fontSize=16;" parent="1" vertex="1">
          <mxGeometry x="650" y="384" width="415" height="30" as="geometry" />
        </mxCell>
        <mxCell id="MoLUOoWKBqtgpBnRlrvZ-15" value="&lt;b&gt;&lt;font style=&quot;font-size: 25px;&quot;&gt;G0 – A0# - D1 - G1 - D2 - G2&lt;/font&gt;&lt;/b&gt;" style="text;strokeColor=none;align=center;fillColor=none;html=1;verticalAlign=middle;whiteSpace=wrap;rounded=0;fontSize=16;" parent="1" vertex="1">
          <mxGeometry x="640" y="760" width="415" height="30" as="geometry" />
        </mxCell>
        <mxCell id="tfc5uwF9jfiPMmJbQ6sT-1" value="" style="shape=image;verticalLabelPosition=bottom;labelBackgroundColor=default;verticalAlign=top;aspect=fixed;imageAspect=0;image=https://pereborom.ru/wp-content/uploads/2018/07/Akkord-G-na-gitare-2-lad.png;" vertex="1" parent="1">
          <mxGeometry x="10" y="120" width="260" height="260" as="geometry" />
        </mxCell>
        <mxCell id="tfc5uwF9jfiPMmJbQ6sT-2" value="" style="shape=image;verticalLabelPosition=bottom;labelBackgroundColor=default;verticalAlign=top;aspect=fixed;imageAspect=0;image=https://pereborom.ru/wp-content/uploads/2018/09/G-2.jpg;" vertex="1" parent="1">
          <mxGeometry x="280" y="80" width="275" height="275" as="geometry" />
        </mxCell>
        <mxCell id="tfc5uwF9jfiPMmJbQ6sT-3" value="" style="shape=image;verticalLabelPosition=bottom;labelBackgroundColor=default;verticalAlign=top;aspect=fixed;imageAspect=0;image=https://pereborom.ru/wp-content/uploads/2018/07/Akkord-G-na-gitare-3-lad.png;" vertex="1" parent="1">
          <mxGeometry x="10" y="470" width="265" height="265" as="geometry" />
        </mxCell>
        <mxCell id="tfc5uwF9jfiPMmJbQ6sT-4" value="" style="shape=image;verticalLabelPosition=bottom;labelBackgroundColor=default;verticalAlign=top;aspect=fixed;imageAspect=0;image=https://pereborom.ru/wp-content/uploads/2018/09/G-3.jpg;" vertex="1" parent="1">
          <mxGeometry x="280" y="440" width="275" height="275" as="geometry" />
        </mxCell>
        <mxCell id="tfc5uwF9jfiPMmJbQ6sT-5" value="" style="shape=image;verticalLabelPosition=bottom;labelBackgroundColor=default;verticalAlign=top;aspect=fixed;imageAspect=0;image=https://pereborom.ru/wp-content/uploads/2018/11/Gm_3.png;" vertex="1" parent="1">
          <mxGeometry x="570" y="120" width="260" height="260" as="geometry" />
        </mxCell>
        <mxCell id="tfc5uwF9jfiPMmJbQ6sT-6" value="" style="shape=image;verticalLabelPosition=bottom;labelBackgroundColor=default;verticalAlign=top;aspect=fixed;imageAspect=0;image=https://pereborom.ru/wp-content/uploads/2019/05/Gm-3.jpg;" vertex="1" parent="1">
          <mxGeometry x="840" y="80" width="275" height="275" as="geometry" />
        </mxCell>
        <mxCell id="tfc5uwF9jfiPMmJbQ6sT-7" value="" style="shape=image;verticalLabelPosition=bottom;labelBackgroundColor=default;verticalAlign=top;aspect=fixed;imageAspect=0;image=https://pereborom.ru/wp-content/uploads/2018/11/Gm_1.png;" vertex="1" parent="1">
          <mxGeometry x="570" y="477.5" width="262.5" height="262.5" as="geometry" />
        </mxCell>
        <mxCell id="tfc5uwF9jfiPMmJbQ6sT-9" value="" style="shape=image;verticalLabelPosition=bottom;labelBackgroundColor=default;verticalAlign=top;aspect=fixed;imageAspect=0;image=https://pereborom.ru/wp-content/uploads/2019/05/Gm-1.jpg;" vertex="1" parent="1">
          <mxGeometry x="840" y="440" width="280" height="280" as="geometry" />
        </mxCell>
      </root>
    </mxGraphModel>
  </diagram>
</mxfile>
